<svg width="100" height="113" viewBox="0 0 100 113" fill="none" xmlns="http://www.w3.org/2000/svg">
<g clip-path="url(#clip0_16998_1860)">
<path d="M100 50.8724V108.523C100 109.912 99.3208 111.146 98.2536 111.959C97.4024 112.609 96.3219 113 95.1356 113H4.89085C3.70011 113 2.59757 112.613 1.76406 111.959C0.683572 111.146 0 109.907 0 108.523V50.8724C0 49.4929 0.679162 48.2584 1.76406 47.4325C2.59757 46.7911 3.70011 46.4045 4.89085 46.4045H95.1312C96.3175 46.4045 97.398 46.7911 98.2492 47.4325C99.3208 48.2584 99.9956 49.4929 99.9956 50.8724H100Z" fill="#0F1925"/>
<path d="M98.2449 111.871C97.4025 112.574 96.3176 112.996 95.1313 112.996H4.88654C3.70021 112.996 2.60209 112.574 1.76416 111.871L50.0067 73.0181L98.2449 111.871Z" fill="#22CE6C"/>
<path d="M100 50.8723V51.5796L97.9316 53.2358L97.8699 53.2841L90.3109 59.3291L87.6119 61.4905L86.2359 62.5888L85.3054 63.3312L82.4256 65.6332L53.5171 88.7762C51.4972 90.3665 48.516 90.3665 46.5005 88.7718L37.1378 81.2815L21.5171 68.7875L18.7166 66.547L14.871 63.4718L13.5568 62.4218L12.0838 61.2445L11.9118 61.1039L9.63175 59.2808L0 51.5796V50.8723C0 49.8487 0.379272 48.8954 1.01874 48.1398C1.02756 48.131 1.03197 48.1266 1.04079 48.1178C1.25248 47.8674 1.49504 47.639 1.76406 47.4369L3.38258 46.4089L16.2999 40.9658H83.8853L94.9636 45.2843L98.0507 47.2919C98.1169 47.3402 98.183 47.3886 98.2492 47.4369C98.602 47.7093 98.9107 48.0212 99.1665 48.3726C99.6913 49.0887 99.9956 49.9498 99.9956 50.8767L100 50.8723Z" fill="url(#paint0_linear_16998_1860)"/>
<path d="M89.9935 0C87.4886 0 85.4114 1.89344 85.138 4.31405C85.1159 4.50295 85.1027 4.67868 85.1027 4.87198V27.6723H85.138V63.3972L84.5029 63.92L82.4302 65.6201L76.4456 70.4262L68.3177 76.9676L66.2052 78.6677L53.4335 88.8422C52.45 89.6813 51.2328 90.0986 50.02 90.0942C48.9395 90.0898 47.859 89.7516 46.9506 89.0794C46.8447 89.0047 46.7389 88.9169 46.6374 88.8334L16.4191 64.7108L14.7124 63.2303V57.4226L14.7212 46.409L14.73 31.4987L14.7477 4.31844C15.0167 1.89344 17.0939 0 19.5988 0H89.9935Z" fill="#EFEFEF"/>
<path d="M94.8886 4.99942V19.8218C94.8886 21.9525 93.151 23.6834 91.0121 23.6834H85.1069V4.87202C85.1069 4.68312 85.1202 4.503 85.1378 4.31849C85.4068 1.94181 87.4223 0.0659426 89.8655 4.56955e-05C92.6262 -0.0746375 94.8886 2.24493 94.8886 4.99942Z" fill="url(#paint1_linear_16998_1860)"/>
<path d="M70.3993 19.9141H28.8072C26.7345 19.9141 25.0542 21.5879 25.0542 23.6526V23.7624C25.0542 25.8272 26.7345 27.501 28.8072 27.501H70.3993C72.472 27.501 74.1523 25.8272 74.1523 23.7624V23.6526C74.1523 21.5879 72.472 19.9141 70.3993 19.9141Z" fill="#22CE6C"/>
<path d="M70.3993 37.4998H28.8072C26.7345 37.4998 25.0542 39.1736 25.0542 41.2383V41.3481C25.0542 43.4129 26.7345 45.0867 28.8072 45.0867H70.3993C72.472 45.0867 74.1523 43.4129 74.1523 41.3481V41.2383C74.1523 39.1736 72.472 37.4998 70.3993 37.4998Z" fill="#22CE6C"/>
<path d="M70.4522 63.1511H28.7499C26.7168 63.1511 25.0498 61.4422 25.0498 59.3599C25.0498 57.2731 26.7124 55.5686 28.7499 55.5686H70.4522C72.4853 55.5686 74.1523 57.2775 74.1523 59.3599C74.1523 61.4466 72.4897 63.1511 70.4522 63.1511Z" fill="#22CE6C"/>
<path opacity="0.36" d="M14.8754 57.2556V63.6652L12.2381 61.3764L12.0926 61.249L10.5358 59.8959L0 51.5402V50.8724C0 49.8488 0.379272 48.8955 1.01874 48.1399C1.02756 48.1311 1.03197 48.1267 1.04079 48.1179L14.8754 57.2556Z" fill="url(#paint2_linear_16998_1860)"/>
<path opacity="0.36" d="M99.9998 50.8725V51.5666L97.9314 53.236L97.8697 53.2843L88.9832 60.4583L87.5543 61.561L85.3096 63.3578V57.4139L99.1706 48.3684C99.6955 49.0845 99.9998 49.9455 99.9998 50.8725Z" fill="url(#paint3_linear_16998_1860)"/>
<path opacity="0.22" d="M85.3099 63.3577L53.3848 88.829C53.2834 88.9169 53.1776 89.0003 53.0717 89.0794C51.0166 90.4237 48.2779 90.2788 46.3771 88.6401L23.5723 70.4262L14.8799 63.3972V57.2556L50.0067 80.4557L85.3099 57.4182V63.3621V63.3577Z" fill="url(#paint4_linear_16998_1860)"/>
<path opacity="0.31" d="M84.4982 0H68.313V112.996H84.4982V0Z" fill="url(#paint5_linear_16998_1860)"/>
</g>
<defs>
<linearGradient id="paint0_linear_16998_1860" x1="49.9978" y1="47.9201" x2="49.9978" y2="99.4076" gradientUnits="userSpaceOnUse">
<stop stop-color="#0F1925"/>
<stop offset="1" stop-color="#22CE6C"/>
</linearGradient>
<linearGradient id="paint1_linear_16998_1860" x1="89.9978" y1="37.2318" x2="89.9978" y2="2.1395" gradientUnits="userSpaceOnUse">
<stop stop-color="#DEE1E2"/>
<stop offset="1" stop-color="#B4BCBE"/>
</linearGradient>
<linearGradient id="paint2_linear_16998_1860" x1="7.4355" y1="76.8797" x2="7.4355" y2="154.893" gradientUnits="userSpaceOnUse">
<stop stop-color="#22CE6C"/>
<stop offset="1" stop-color="#0F1925"/>
</linearGradient>
<linearGradient id="paint3_linear_16998_1860" x1="92.6525" y1="76.7919" x2="92.6525" y2="155.034" gradientUnits="userSpaceOnUse">
<stop stop-color="#22CE6C"/>
<stop offset="1" stop-color="#0F1925"/>
</linearGradient>
<linearGradient id="paint4_linear_16998_1860" x1="89.2702" y1="73.62" x2="1.59212" y2="73.62" gradientUnits="userSpaceOnUse">
<stop stop-color="#DEE1E2"/>
<stop offset="1" stop-color="#B4BCBE"/>
</linearGradient>
<linearGradient id="paint5_linear_16998_1860" x1="76.41" y1="-7.20912" x2="76.41" y2="134.162" gradientUnits="userSpaceOnUse">
<stop stop-color="#FEFEFC"/>
<stop offset="0.09" stop-color="#FEFEFC" stop-opacity="0.97"/>
<stop offset="0.24" stop-color="#FEFEFC" stop-opacity="0.87"/>
<stop offset="0.43" stop-color="#FEFEFC" stop-opacity="0.72"/>
<stop offset="0.64" stop-color="#FEFEFD" stop-opacity="0.51"/>
<stop offset="0.88" stop-color="#FEFEFE" stop-opacity="0.25"/>
<stop offset="1" stop-color="white" stop-opacity="0.1"/>
</linearGradient>
<clipPath id="clip0_16998_1860">
<rect width="100" height="113" fill="white"/>
</clipPath>
</defs>
</svg>
